<svg width="24" height="24" viewBox="0 0 24 24" fill="none" xmlns="http://www.w3.org/2000/svg">
<rect width="24" height="24" rx="4" fill="black"/>
<circle cx="6" cy="6" r="1" fill="white"/>
<circle cx="6" cy="6" r="1" fill="white"/>
<circle cx="6" cy="6" r="1" fill="white"/>
<circle cx="6" cy="6" r="1" fill="white"/>
<circle cx="12" cy="4" r="1" fill="white"/>
<circle cx="12" cy="4" r="1" fill="white"/>
<circle cx="12" cy="4" r="1" fill="white"/>
<circle cx="12" cy="4" r="1" fill="white"/>
<circle cx="6" cy="18" r="1" fill="white"/>
<circle cx="6" cy="18" r="1" fill="white"/>
<circle cx="6" cy="18" r="1" fill="white"/>
<circle cx="6" cy="18" r="1" fill="white"/>
<circle cx="18" cy="18" r="1" fill="white"/>
<circle cx="18" cy="18" r="1" fill="white"/>
<circle cx="18" cy="18" r="1" fill="white"/>
<circle cx="18" cy="18" r="1" fill="white"/>
<circle cx="20" cy="12" r="1" fill="white"/>
<circle cx="20" cy="12" r="1" fill="white"/>
<circle cx="20" cy="12" r="1" fill="white"/>
<circle cx="20" cy="12" r="1" fill="white"/>
<circle cx="4" cy="12" r="1" fill="white"/>
<circle cx="4" cy="12" r="1" fill="white"/>
<circle cx="4" cy="12" r="1" fill="white"/>
<circle cx="4" cy="12" r="1" fill="white"/>
<circle cx="12" cy="20" r="1" fill="white"/>
<circle cx="12" cy="20" r="1" fill="white"/>
<circle cx="12" cy="20" r="1" fill="white"/>
<circle cx="12" cy="20" r="1" fill="white"/>
<circle cx="18" cy="6" r="1" fill="white"/>
<circle cx="18" cy="6" r="1" fill="white"/>
<circle cx="18" cy="6" r="1" fill="white"/>
<circle cx="18" cy="6" r="1" fill="white"/>
<circle cx="12" cy="12" r="4" fill="white"/>
</svg>
